<?xml version="1.0" encoding="utf-8"?>
<!-- Generator: Adobe Illustrator 20.1.0, SVG Export Plug-In . SVG Version: 6.00 Build 0)  -->
<svg version="1.1" xmlns="http://www.w3.org/2000/svg" xmlns:xlink="http://www.w3.org/1999/xlink" x="0px" y="0px"
	 viewBox="0 0 960 216" style="enable-background:new 0 0 960 216;" xml:space="preserve">
<style type="text/css">
	.st0{fill:#FFFFFF;}
	.st1{display:none;}
	.st2{display:inline;}
	.st3{fill:#E2390D;}
	.st4{fill:#FBCFC6;}
	.st5{fill:#C9BBAA;}
	.st6{fill:#E23A0E;}
	.st7{fill:#E23A0F;}
	.st8{fill:#000002;}
	.st9{fill:#010102;}
	.st10{fill:#010002;}
</style>
<g id="Calque_2">
	<rect x="0.8" y="0" class="st0" width="958.5" height="216"/>
</g>
<g id="saint_x5F_algue" class="st1">
	<g class="st2">
		<path class="st3" d="M66.4,79.1c0.6-0.6,0.5-1.4,0.8-2.1c1.6-4.4,5.1-6.9,9.2-8.7c4.5-2,9.3-2.7,14.1-2.9
			c8.3-0.3,16.5,0.9,24.4,3.5c1,0.3,1.3,0.7,1.2,1.7c-0.1,2.4,0,4.9,0,7.5c-3.7-1.5-7.3-2.5-11-3.2c-7.3-1.2-14.6-1.4-21.8,0.7
			c-1.5,0.4-2.8,1.1-4.1,1.9c-4,2.5-2.5,7.8,0.6,9.2c1.9,0.9,3.9,1.3,5.9,1.4c4.6,0.4,9.3,0.6,13.9,0.9c4,0.3,8,0.7,11.8,2
			c7.7,2.7,11.4,9,10,17c-1.3,7.8-5.8,12.1-14.4,14.1c-6.3,1.4-12.6,1.4-19,1.1c-6.6-0.4-13.2-1.5-19.7-3.1
			c-0.9-0.2-1.2-0.5-1.2-1.4c0.1-2.8,0-5.6,0-8.4c0-0.8,0.2-1,1-0.7c7.7,2.7,15.7,4.3,23.9,4.7c4.9,0.2,9.9-0.2,14.6-2
			c2.2-0.8,4.2-2.1,5-4.4c1.2-3.3-0.2-6.3-3.6-7.5c-2.7-1-5.6-1.3-8.5-1.5c-4.1-0.2-8.3-0.3-12.4-0.6c-5-0.3-9.7-1.7-14-4.4
			c-3.3-2.1-5.6-5-6.6-8.8c-0.1-0.2,0-0.5-0.3-0.6C66.4,82.8,66.4,80.9,66.4,79.1z"/>
		<path class="st4" d="M893.4,71.1c0.1,0,0.2,0,0.2,0c0,1.1,0,2.2,0,3.2c-0.1,0-0.2,0-0.3,0C893.4,73.3,893.4,72.2,893.4,71.1z"/>
		<path class="st3" d="M279.5,82.9c0,0.9,0,1.4,0,2c0,12,0,24,0,35.9c0,1.5-0.4,1.8-1.8,1.7c-2.2-0.1-4.4-0.1-6.6,0
			c-1.2,0.1-1.6-0.2-1.6-1.6c0.1-9.2,0-18.4,0-27.6c0-8.1,0-16.2,0-24.4c0-1.1,0.2-1.4,1.3-1.4c3.3,0,6.6-0.1,9.4,2
			c1.3,0.9,2.4,2,3.4,3.2c10.8,12.7,21.6,25.5,32.4,38.2c0.7,0.9,1.6,2.2,2.6,1.8c0.8-0.2,0.3-1.8,0.3-2.8c0-13.5,0-27,0-40.5
			c0-1.4,0.2-1.9,1.7-1.8c2.2,0.1,4.4,0.1,6.6,0c0.8,0,1.2,0.1,1.2,1.1c0,17.6,0,35.1,0,52.7c0,0.6,0.1,1.2-0.9,1.1
			c-3.3,0-6.6,0-9.8-0.1c-2.9-0.1-5.2-1.5-7.1-3.7c-10-11.6-20-23.1-30-34.7C280.4,84,280.1,83.6,279.5,82.9z"/>
		<path class="st5" d="M635.9,104.4c0,4.1,0,8.1,0,12.2c0,0.9-0.2,1.4-1.1,1.7c-5.6,2.1-11.4,3.6-17.4,4.3c-6.8,0.8-13.4,0.6-20-1
			c-8.3-2-15.4-5.9-19.2-14c-2.6-5.5-3.2-11.4-2.5-17.5c0.6-5.6,2.4-10.7,5.9-15.1c3-3.7,7-6,11.4-7.8c5.6-2.2,11.3-2.8,17.2-2.7
			c7.7,0.1,15.1,1.2,22.4,3.8c1,0.4,1.2,0.8,1,1.8c-0.6,2.1-1.2,4.2-1.6,6.4c-0.2,1.1-0.6,1.1-1.5,0.8c-4.1-1.7-8.3-2.9-12.6-3.6
			c-7.4-1.2-14.6-1.1-21.4,2.4c-6,3.1-9.2,8.2-10.3,14.6c-0.9,5.1-0.3,9.9,2.6,14.4c3.7,5.7,9.1,8.1,15.6,8.7
			c6.7,0.6,13.3-0.3,19.9-1.5c1.4-0.2,1.9-0.7,1.9-2.2c-0.1-2.9,0-5.8,0-8.7c0-2.3,0.2-2-2.1-2c-3.9,0-7.7,0-11.6,0
			c-1,0-1.4-0.3-1.3-1.3c0.1-2,0.1-4,0-6c0-0.9,0.2-1.2,1.1-1.2c7.6,0,15.2,0,22.7,0c1,0,1.1,0.4,1.1,1.2
			C635.9,96.2,635.9,100.3,635.9,104.4z"/>
		<path class="st5" d="M765.8,121.4c-6.5,0-13-0.2-19.5,0.1c-4.5,0.2-7.9-3.5-7.8-7.7c0.2-12.3,0.1-24.6,0.1-36.8
			c0-1.5-0.2-2.9,0.1-4.4c0.8-3.8,3.6-6.1,7.5-6.1c8.2-0.1,16.3,0,24.5,0c4.8,0,9.7,0,14.5,0c1.3,0,1.6,0.4,1.5,1.6
			c-0.1,2-0.1,4,0,6c0,0.9-0.2,1.3-1.2,1.3c-11.5,0-23,0-34.5-0.1c-2.8,0-2.8-0.1-2.8,2.8c0,3.1,0.1,6.2,0,9.2
			c0,1.2,0.3,1.6,1.5,1.6c10.7,0,21.3,0,32-0.1c1.4,0,1.9,0.4,1.8,1.8c-0.1,1.7-0.1,3.4,0,5.1c0.1,1.4-0.5,1.7-1.7,1.7
			c-10.6,0-21.1,0-31.7-0.1c-1.4,0-1.9,0.3-1.9,1.8c0.1,3.9,0.1,7.8,0,11.7c0,1.3,0.3,1.7,1.7,1.7c12.1-0.1,24.3,0,36.4-0.1
			c1.4,0,2,0.3,1.9,1.8c-0.2,1.7-0.2,3.5,0,5.3c0.1,1.6-0.5,1.8-1.9,1.8C779.5,121.4,772.6,121.4,765.8,121.4z"/>
		<path class="st5" d="M713.3,92.4c0,8.2,0,16.3,0,24.5c0,1-0.2,1.5-1.2,1.7c-5.1,1.2-10,2.9-15.2,3.7c-7.9,1.1-15.9,1.5-23.6-1.3
			c-6.5-2.4-10.9-6.7-12.4-13.7c-0.3-1.3-0.5-2.7-0.5-4.1c0-11.7,0-23.5,0-35.2c0-1.2,0.2-1.7,1.6-1.7c2.2,0.1,4.4,0.1,6.6,0
			c1.2-0.1,1.6,0.3,1.5,1.6c0,10.8,0.2,21.5-0.1,32.3c-0.3,8.3,5,12.3,11.1,14c4,1.1,8,0.4,12-0.1c2.9-0.4,5.9-0.9,8.7-1.9
			c1.3-0.4,1.7-1.1,1.7-2.5c0-13.8,0-27.7-0.1-41.5c0-1.5,0.4-2,1.9-1.9c2.1,0.1,4.3,0.1,6.5,0c1.2-0.1,1.5,0.4,1.5,1.5
			C713.3,76.1,713.3,84.3,713.3,92.4z"/>
		<path class="st3" d="M373.4,67c8.1,0,16.2,0,24.4,0c1.1,0,1.4,0.3,1.4,1.4c-0.1,2.2-0.1,4.4,0,6.6c0,1.1-0.2,1.5-1.4,1.5
			c-6-0.1-12,0-18.1-0.1c-1.4,0-1.6,0.4-1.6,1.6c0,14.1,0,28.3,0.1,42.4c0,1.3-0.3,1.6-1.6,1.6c-2.1-0.1-4.2-0.1-6.3,0
			c-1.2,0.1-1.5-0.2-1.5-1.5c0.1-14.1,0-28.2,0.1-42.3c0-1.6-0.5-1.9-1.9-1.8c-6,0.1-11.9,0-17.9,0.1c-1.2,0-1.5-0.4-1.4-1.5
			c0.1-2.2,0.1-4.4,0-6.6c0-1.1,0.2-1.4,1.4-1.4C357.1,67.1,365.2,67,373.4,67z"/>
		<path class="st5" d="M518.7,91.1c0-7.7,0-15.4,0-23c0-1.3,0.4-1.7,1.7-1.6c2,0.1,4,0.1,6,0c1.6-0.1,1.8,0.5,1.8,1.9
			c0,14.1,0,28.2,0,42.3c0,1.9,0,1.9,1.9,1.9c10.2,0,20.3,0,30.5,0c1.9,0,1.9,0,1.9,2c0,1.8-0.1,3.6,0,5.4c0.1,1.2-0.4,1.5-1.5,1.5
			c-10.9,0-21.7,0-32.6,0c-1.1,0-2.1,0.2-3.2,0c-3.9-0.6-6.5-3.5-6.5-7.4C518.7,106.4,518.7,98.7,518.7,91.1z"/>
		<path class="st3" d="M241.4,95.2c0,8.6,0,17.2,0,25.8c0,1.4-0.4,1.6-1.6,1.6c-2.5-0.1-5-0.1-7.5,0c-0.9,0-1.2-0.2-1.2-1.1
			c0-17.6,0-35.1,0-52.7c0-1,0.4-1.2,1.3-1.2c2.5,0,5.1,0.1,7.6,0c1.1,0,1.4,0.2,1.4,1.4C241.3,77.7,241.4,86.5,241.4,95.2z"/>
		<path class="st3" d="M141.1,166c0-2.4,0-4.8,0-7.2c0-0.8-0.2-1.1-1.1-1.1c-2,0.1-4,0.1-6,0c-1,0-1.1,0.3-1.1,1.2
			c0,4.7,0,9.4,0,14.1c0,1.2-0.2,1.6-1.5,1.6c-2.1-0.1-2.1,0-2.1-2.2c0-4.4,0-8.8,0-13.2c0-1-0.1-1.6-1.3-1.4
			c-1.1,0.2-1.5-0.2-1.5-1.4c0-1.2,0.4-1.6,1.5-1.4c1,0.2,1.4-0.2,1.3-1.3c0-1,0.2-2.1,0.4-3c1-3.7,4.6-5.7,8.2-4.7
			c0.9,0.2,1.4,0.6,1,1.6c-0.3,0.7-0.1,1.7-1.6,1.3c-2.4-0.7-4,0.6-4.4,3.4c-0.4,2.7-0.4,2.8,2.3,2.8c1.5,0,3,0,4.5,0
			c0.9,0,1.2-0.2,1.2-1.1c0-1.7,0.2-3.3,1-4.8c1.5-3,5.5-4.6,8.5-3.3c1.4,0.6,0.2,1.6,0.3,2.4c0.1,0.8-0.5,0.4-0.9,0.4
			c-3.3-0.5-4.9,0.7-5.2,4c0,0.4,0,0.8-0.1,1.2c-0.1,1,0.1,1.5,1.2,1.3c0.8-0.1,1.7,0.1,2.5,0c1.4-0.1,1,0.8,1,1.5
			c0.1,0.8,0.1,1.5-1.1,1.3c-0.8-0.1-1.7,0-2.5,0c-0.9-0.1-1.1,0.3-1.1,1.1c0,4.7,0,9.5,0,14.2c0,1.1-0.2,1.6-1.4,1.4
			c-0.3-0.1-0.6,0-0.9,0c-1,0.2-1.5-0.2-1.4-1.3C141.2,170.8,141.1,168.4,141.1,166z"/>
		<path class="st3" d="M467.7,160.8c0-4.2,0-8.3,0-12.5c0-0.9,0.2-1.2,1.1-1.2c4.2,0,8.4,0.1,12.6,0c1.2,0,1.2,0.6,1.1,1.4
			c0,0.8,0.3,1.6-1.1,1.6c-2.9-0.1-5.9,0-8.8-0.1c-1,0-1.4,0.2-1.4,1.3c0.1,2,0.1,4.1,0,6.2c0,0.9,0.3,1.2,1.2,1.1
			c2.8-0.1,5.6,0.1,8.4,0c1.4-0.1,1.1,0.8,1.2,1.6c0.1,0.9,0,1.4-1.2,1.4c-2.8-0.1-5.6,0-8.4,0c-0.9,0-1.2,0.3-1.2,1.2
			c0,2.5,0.1,5.1,0,7.6c0,0.9,0.3,1.1,1.2,1.1c3.2,0,6.4,0.1,9.5-0.1c1.3,0,1.2,0.6,1.2,1.5c0,0.8,0.2,1.6-1.2,1.6
			c-4.3-0.1-8.7-0.1-13,0c-1.2,0-1.3-0.4-1.3-1.4C467.8,169,467.7,164.9,467.7,160.8z"/>
		<path class="st3" d="M249,170c1.9-6.1,4.1-12,6.1-18c0.2-0.6,0.4-1.2,0.6-1.8c1.1-3.3,1.1-3.3,4.8-2.9c-0.9,2.5-1.8,5-2.6,7.4
			c-2.2,6.2-4.4,12.3-6.6,18.5c-0.4,1-0.8,1.6-2,1.4c-0.5-0.1-1-0.1-1.5,0c-0.8,0.1-1.2-0.3-1.4-1.1c-2.7-8.4-5.4-16.7-8.2-25
			c-0.4-1.1-0.2-1.3,0.9-1.3c2.6,0,2.6,0,3.3,2.4C244.7,156.4,247,163.1,249,170z"/>
		<path class="st3" d="M82.7,146.8c1.8,0,3.5,0.2,5.2,0.8c1.7,0.5,0.4,1.6,0.3,2.4c0,0.9-0.5,0.9-1.3,0.6c-2.2-0.8-4.6-1-6.9-0.5
			c-5.5,1-8.8,5.8-8.2,11.9c0.7,7.9,6.6,11.7,14.5,9.5c1.7-0.5,2.3,0,2.4,1.8c0,0.4-0.2,0.6-0.5,0.7c-4.3,1.6-11.7,1.9-16-2.3
			c-4-3.8-5.3-10.6-3.1-16.3c2-5.3,6.7-8.4,12.7-8.5C82,146.8,82.3,146.8,82.7,146.8z"/>
		<path class="st3" d="M657.3,157.6c1.9-2,4-3.1,6.7-3.1c3.7,0.1,6.4,2.5,6.8,6.4c0.4,4.3,0.1,8.6,0.2,12.9c0,0.6-0.2,0.7-0.8,0.8
			c-2.9,0.3-2.9,0.3-2.9-2.6c0-2.8,0-5.7,0-8.5c0-0.7,0-1.4-0.2-2c-0.6-2.8-2.2-4.1-4.8-3.9c-2.4,0.2-4.4,2.3-4.5,4.8
			c-0.1,3.6-0.1,7.2,0,10.9c0,1.1-0.3,1.4-1.4,1.4c-2.4-0.1-2.4,0-2.4-2.4c0-5.4,0-10.8-0.1-16.1c0-0.8,0.2-1.3,1-1.1
			c0.8,0.2,2.1-0.8,2.2,0.9C657.3,156.4,657.3,157,657.3,157.6z"/>
		<path class="st3" d="M188.8,171.5c-1.3,1.7-2.8,2.9-4.7,3.2c-4.5,0.9-7.8-1.4-8.3-5.9c-0.5-4.4-0.1-8.8-0.2-13.2
			c0-0.6,0.3-0.7,0.8-0.8c2.9-0.3,2.8-0.3,2.8,2.5c0,2.8,0,5.7,0,8.5c0,0.6,0,1.2,0.1,1.8c0.5,3.1,1.9,4.4,4.7,4.3
			c2.5-0.1,4.5-2.4,4.6-5c0-3.5,0.1-7,0-10.6c0-1.2,0.3-1.6,1.5-1.4c0.3,0,0.6,0,0.9,0c1-0.2,1.3,0.2,1.3,1.3c-0.1,4.9,0,9.9,0,14.8
			c0,0.5,0.1,1,0,1.5c0,0.7,0.4,1.7,0,1.9c-0.7,0.3-1.7,0.1-2.6,0.2c-0.5,0-0.5-0.4-0.5-0.7C188.9,173.1,188.8,172.4,188.8,171.5z"
			/>
		<path class="st3" d="M279.9,174.9c-2.1,0-3.6-0.2-5.1-0.9c-1.5-0.7-0.2-1.7-0.1-2.5c0.1-1,0.7-0.4,1.2-0.2c1.4,0.7,3,1,4.6,0.8
			c1.6-0.1,2.7-1,3-2.2c0.3-1.5-0.3-2.6-1.7-3.4c-1.1-0.6-2.3-1-3.5-1.5c-2.7-1.3-3.9-3.4-3.5-5.8c0.5-2.7,2.6-4.5,5.6-4.8
			c1.8-0.2,3.5,0,5.2,0.7c1.5,0.6,0.4,1.5,0.3,2.3c-0.1,0.9-0.6,0.7-1.2,0.4c-1.1-0.5-2.3-0.8-3.6-0.6c-1.3,0.1-2.4,0.7-2.7,2
			c-0.4,1.4,0.4,2.4,1.6,2.9c1.1,0.5,2.3,0.9,3.3,1.5c2,1,3.7,2.3,3.8,4.7c0.2,3.5-1.7,5.8-5.2,6.4
			C280.9,174.9,280.2,174.9,279.9,174.9z"/>
		<path class="st3" d="M409.6,154.5c1.1-0.1,2.1,0.2,3.2,0.5c1.3,0.3,1.6,0.9,1.1,2.2c-0.4,0.9-0.7,1.1-1.5,0.6
			c-1.1-0.5-2.2-0.7-3.4-0.6c-1.3,0.1-2.4,0.6-2.7,2c-0.4,1.4,0.4,2.3,1.6,3c1.5,0.8,3.2,1.2,4.6,2.2c2.3,1.5,3.1,3.8,2.4,6.4
			c-0.5,1.7-1.6,2.9-3.3,3.5c-2.9,1.1-5.7,0.9-8.6-0.2c-1.7-0.7-0.3-1.7-0.2-2.5c0.2-1.2,0.9-0.2,1.3-0.1c1.5,0.6,3,0.9,4.6,0.7
			c1.4-0.2,2.4-0.8,2.8-2.2c0.3-1.4-0.3-2.4-1.5-3.2c-1.6-1-3.6-1.3-5.1-2.5c-2.8-2.1-2.9-6-0.2-8.2
			C406.1,154.8,407.8,154.4,409.6,154.5z"/>
		<path class="st3" d="M778.8,174.9c-1.6,0-3.2-0.2-4.7-0.9c-1.6-0.7-0.2-1.6-0.1-2.4c0.1-1.1,0.8-0.4,1.3-0.2
			c1.4,0.6,2.8,0.9,4.3,0.8c1.7-0.1,2.8-0.9,3.1-2.2c0.4-1.4-0.2-2.6-1.8-3.5c-1.4-0.8-2.9-1.1-4.2-2c-2.4-1.5-3.2-3.7-2.4-6.1
			c0.5-1.5,1.5-2.7,3-3.3c2.6-1.1,5.2-1,7.7,0.1c1.5,0.6,0.2,1.5,0.1,2.3c-0.1,0.9-0.7,0.5-1.2,0.3c-1.2-0.5-2.4-0.8-3.7-0.6
			c-1.3,0.2-2.4,0.7-2.7,2.1c-0.3,1.4,0.5,2.2,1.6,2.8c1.6,0.9,3.4,1.3,4.9,2.3c1.9,1.3,2.6,3.1,2.4,5.3c-0.2,2.2-1.5,3.6-3.4,4.4
			C781.6,174.8,780.2,174.9,778.8,174.9z"/>
		<path class="st3" d="M587.5,170.9c1.7,0.9,3.5,1.5,5.4,1.3c1.6-0.1,2.8-0.9,3-2.1c0.3-1.5-0.2-2.7-1.8-3.5c-1.1-0.6-2.3-1-3.5-1.5
			c-2.6-1.3-3.8-3.3-3.5-5.7c0.4-2.4,2.2-4.2,4.9-4.7c2-0.4,4-0.2,5.9,0.6c1.5,0.6,0.3,1.5,0.2,2.3c-0.1,1-0.7,0.5-1.3,0.3
			c-1.2-0.5-2.4-0.8-3.7-0.6c-1.2,0.2-2.3,0.7-2.6,2.1c-0.3,1.3,0.4,2.3,1.5,2.9c1.1,0.6,2.3,1,3.5,1.5c3,1.4,4.2,3.5,3.8,6.5
			c-0.4,2.5-2.6,4.3-5.7,4.7c-1.9,0.2-3.8,0.1-5.6-0.5c-1.2-0.4-1.8-0.9-1.1-2.2C587.3,171.8,587.4,171.3,587.5,170.9z"/>
		<path class="st3" d="M353.3,174.9c-1.7,0-3.3-0.2-4.8-1c-1.3-0.7-0.1-1.6,0-2.4c0.1-1,0.8-0.4,1.2-0.2c1.4,0.7,3,1,4.5,0.9
			c1.4-0.1,2.5-0.7,3-2.2c0.4-1.2-0.2-2.5-1.6-3.3c-1.2-0.6-2.5-1.1-3.7-1.7c-3.1-1.6-4.2-4.4-3-7.1c0.8-1.8,2.4-2.8,4.3-3.2
			c2-0.4,4-0.2,5.9,0.5c1.5,0.5,0.6,1.4,0.4,2.2c-0.2,1.1-0.8,0.6-1.4,0.4c-1.4-0.6-2.9-0.9-4.4-0.4c-1,0.3-1.7,1-1.8,2.1
			c-0.1,1.1,0.3,1.9,1.2,2.5c1.7,1.1,3.6,1.4,5.3,2.6c2.7,1.9,3.3,5.6,1.2,8.1c-1.1,1.3-2.6,1.9-4.2,2.2
			C354.7,174.9,354,174.9,353.3,174.9z"/>
		<path class="st3" d="M682.3,174.9c-1.6,0-3.1-0.2-4.6-0.9c-1.6-0.7-0.3-1.6-0.2-2.4c0.1-1.1,0.8-0.4,1.3-0.2
			c1.3,0.6,2.6,0.9,4,0.8c1.9-0.1,3.2-0.9,3.5-2.3c0.3-1.4-0.4-2.7-2.2-3.5c-1.2-0.6-2.5-1-3.6-1.6c-1.5-0.9-2.7-2.1-2.9-4
			c-0.3-2.7,1.2-5.1,4-5.9c2.3-0.7,4.5-0.5,6.8,0.3c1.5,0.5,0.5,1.4,0.4,2.1c-0.1,0.9-0.6,0.9-1.3,0.5c-1.2-0.6-2.4-0.8-3.7-0.6
			c-1.3,0.2-2.3,0.8-2.6,2.2c-0.3,1.3,0.5,2.2,1.6,2.7c1,0.5,2.1,0.9,3.1,1.3c3.3,1.5,4.7,3.6,4.2,6.4c-0.5,3-2.6,4.7-6.2,5
			C683.2,174.9,682.7,174.9,682.3,174.9z"/>
		<path class="st3" d="M497.4,174.9c-5.8,0-9.7-3.8-9.7-9.4c-0.1-6.3,3.8-10.7,9.5-11c1.7-0.1,3.4,0.1,5.1,0.6
			c1.7,0.6,0.4,1.6,0.3,2.4c0,0.9-0.6,0.6-1.2,0.4c-3.7-1.3-7.3-0.2-9,2.6c-1.9,3.1-1.4,7.5,1.2,9.8c2.2,2,4.9,1.9,7.6,1.2
			c0.5-0.1,1.3-1,1.5,0.3c0.2,0.9,0.9,2-0.8,2.4C500.4,174.7,498.9,174.9,497.4,174.9z"/>
		<path class="st3" d="M218.8,174.9c-2,0-3.5-0.2-5-0.9c-1.5-0.7-0.3-1.6-0.2-2.4c0.2-1.1,0.8-0.4,1.3-0.2c1.5,0.7,3.1,1,4.7,0.8
			c1.3-0.2,2.4-0.8,2.7-2.3c0.3-1.4-0.3-2.5-1.6-3.1c-1.2-0.6-2.4-1-3.6-1.6c-2.8-1.4-4-3.4-3.5-5.9c0.5-2.6,2.7-4.4,5.6-4.7
			c1.7-0.1,3.4,0,5,0.7c1.6,0.6,0.4,1.5,0.3,2.2c-0.2,1-0.7,0.7-1.3,0.4c-1.1-0.5-2.3-0.7-3.6-0.6c-1.5,0.1-2.6,1-2.8,2.2
			c-0.2,1.4,0.5,2.2,1.7,2.8c1.2,0.6,2.4,1,3.6,1.6c2.9,1.5,4,3.5,3.5,6.5c-0.4,2.4-2.5,4.2-5.5,4.5
			C219.7,174.9,219.1,174.9,218.8,174.9z"/>
		<path class="st3" d="M374.8,171.9c0.4,0,1.3-0.4,1.3,1c0,1.2-0.1,1.9-1.5,1.9c-0.6,0-1.3,0.1-1.9,0.1c-2.9-0.1-4.6-1.6-4.9-4.4
			c-0.5-3.7-0.2-7.5-0.2-11.3c0-1.3-0.4-1.8-1.6-1.5c-1.2,0.2-1.4-0.3-1.5-1.4c0-1.2,0.4-1.6,1.5-1.4c1.3,0.2,1.7-0.3,1.6-1.6
			c-0.1-1.9,1.1-3,3-3c0.6,0,0.5,0.3,0.5,0.6c0,1,0,2,0,2.9c0,0.8,0.3,1,1,1c0.9-0.1,1.8,0,2.6,0c1.4,0,2.1,1.2,1.5,2.5
			c-0.2,0.5-0.6,0.3-0.9,0.3c-1.1,0-2.1,0-3.2,0c-0.7,0-1.1,0.1-1.1,1c0,3.4,0,6.7,0.1,10.1C371.3,171.2,372.2,171.9,374.8,171.9z"
			/>
		<path class="st6" d="M745.3,160.1c0,4.3,0,8.7,0,13c0,1.1-0.2,1.4-1.4,1.4c-2.4-0.1-2.4,0-2.4-2.4c0-8.3,0-16.6,0-24.9
			c0-1.2,0.3-1.7,1.5-1.5c0.3,0.1,0.7,0,1,0c1-0.1,1.2,0.2,1.2,1.2C745.3,151.3,745.3,155.7,745.3,160.1z"/>
		<path class="st3" d="M202.7,158c0.6-0.2,0.7-0.7,1-1c0.7-1,1.6-1.8,2.8-2.2c0.9-0.3,2-0.7,2.6,0c0.6,0.7,0.2,1.9,0.2,2.8
			c0,0.4-0.4,0.4-0.6,0.3c-3.5-0.4-5.5,2.8-5.5,5.8c0,3.1-0.1,6.3,0,9.4c0,1.1-0.3,1.6-1.4,1.4c-0.3,0-0.6-0.1-0.9,0
			c-1.2,0.2-1.4-0.4-1.3-1.4c0.1-3.3,0-6.5,0-9.8c0-2.4,0-4.9-0.1-7.3c0-0.8,0.1-1.1,1-1.1C202.5,154.8,202.5,154.8,202.7,158z"/>
		<path class="st3" d="M121.6,164.7c0,2.8,0,5.7,0,8.5c0,0.9-0.1,1.3-1.2,1.3c-2.5,0-2.5,0-2.5-2.5c0-5.2,0-10.5,0-15.7
			c0-1.2,0.4-1.5,1.5-1.4c2.2,0.1,2.2,0,2.2,2.1C121.6,159.6,121.6,162.2,121.6,164.7z"/>
		<path class="st3" d="M341.8,164.8c0,2.8,0,5.7,0,8.5c0,0.9-0.1,1.3-1.2,1.3c-2.5,0-2.5,0-2.5-2.4c0-5.3,0-10.5,0-15.8
			c0-1.2,0.3-1.6,1.5-1.4c0.3,0,0.6,0,0.9,0c1-0.1,1.4,0.2,1.3,1.3C341.7,159,341.8,161.9,341.8,164.8z"/>
		<path class="st6" d="M264.3,164.5c0-2.8,0-5.6,0-8.4c0-1,0.2-1.5,1.3-1.3c0.3,0,0.6,0,0.9,0c1.1-0.2,1.5,0.3,1.5,1.4
			c-0.1,5.6-0.1,11.2,0,16.8c0,1.1-0.3,1.5-1.4,1.4c-0.3,0-0.6,0-0.9,0c-1.1,0.2-1.4-0.2-1.4-1.3
			C264.4,170.3,264.3,167.4,264.3,164.5z"/>
		<path class="st6" d="M119.8,147.2c1.3,0,2.1,0.9,2.1,2.3c0,1.4-0.9,2.2-2.3,2.2c-1.2-0.1-2.1-1-2.1-2.2
			C117.5,148.1,118.5,147.2,119.8,147.2z"/>
		<path class="st7" d="M342.2,149.4c0,1.3-0.9,2.2-2.2,2.2c-1.3,0-2.2-0.9-2.2-2.2c0-1.3,1-2.3,2.3-2.3
			C341.3,147.2,342.2,148.1,342.2,149.4z"/>
		<path class="st7" d="M266.1,151.6c-1.3,0-2.2-0.8-2.2-2.2c0-1.3,0.8-2.2,2.1-2.3c1.4,0,2.3,0.9,2.3,2.3
			C268.3,150.7,267.4,151.6,266.1,151.6z"/>
		<path class="st3" d="M893.4,71.4c0-1.7,0-3.4-0.3-5.1c-2.5-14.3-10.6-24.4-23.7-30.4c-3.7-1.7-7.6-2.7-11.7-2.9
			c-2.7,0-5.5,0-8.2,0c-0.7,0.6-1.7,0.4-2.5,0.5C828.5,36.4,814,53.2,813.9,72c0,13,0,26,0,39c0,1.3,0.4,1.5,1.6,1.5
			c12.9,0,25.7,0,38.6,0c2.3,0,4.5-0.2,6.7-0.6c18.5-3.6,31.6-18.6,32.6-37.5C893.6,73.4,893.4,72.4,893.4,71.4z M859.5,102
			c-3.7,0.7-7.4,0.6-11.1,0.6c-2.8,0-5.6,0-8.4,0c0,0,0,0,0,0c-5.1,0-10.2,0-15.3,0c-1,0-1.3-0.2-1.3-1.3c0-9.7-0.1-19.5,0.1-29.2
			c0.2-15.5,12.8-28.3,28.3-29.2c15.2-0.9,28.3,9.6,31.3,23.9C886.5,82.7,875.6,99.1,859.5,102z"/>
		<path class="st3" d="M329.2,154.8c-1,0-1.4,0.3-1.3,1.3c0,0.4,0.2,0.9-0.2,1.2c-4-4.9-10.9-3.1-13.4,1.3c-2,3.6-2.2,7.4-0.5,11.1
			c1.5,3.3,4.5,4.9,8.1,4.7c2.2-0.2,3.9-1.2,5.5-3c0,1.3,0.1,2.3,0,3.3c-0.3,3.2-2.4,5.1-5.6,5.3c-1.9,0.1-3.7-0.2-5.4-1
			c-0.4-0.2-1.1-0.9-1.2,0.1c-0.1,0.8-1.5,1.8,0.1,2.6c1,0.5,2.2,0.5,3.1,1.2c0.3,0,0.6,0,0.9,0c1.1-0.5,2.2-0.5,3.2,0
			c0.3,0,0.6,0,0.9,0c0.2-0.5,0.8-0.3,1.2-0.4c3.5-0.9,5.5-3.1,6.2-6.6c0.3-1.6,0.4-3.3,0.4-5c0-4.7,0-9.4,0.1-14.1
			C331.1,154.8,331.2,154.9,329.2,154.8z M327.3,167.4c-0.4,2.1-2.2,3.8-4.2,4.2c-2.4,0.4-4.6-0.6-5.7-2.7c-1.4-2.9-1.4-5.9,0.1-8.7
			c1.2-2.3,3.7-3.3,6.1-2.7c2.2,0.6,3.7,2.6,3.8,5.1c0,0.6,0,1.3,0,1.9c0,0,0,0,0,0C327.4,165.5,327.4,166.5,327.3,167.4z"/>
		<path class="st5" d="M501.3,119.8c-5.2-9.5-10.4-19-15.6-28.5c-4.3-7.9-8.7-15.7-12.9-23.7c-1.2-2.3-3.1-3.1-5.5-3.2
			c-2.4,0-4.1,1.2-5.2,3.2c-3,5.4-5.9,10.8-8.8,16.2c-3.5,6.5-7.1,13-10.6,19.6c-3,5.5-5.9,11-8.9,16.5c-0.8,1.4-0.7,1.4,0.9,1.4
			c2.6,0,5.3,0,7.9,0c0.9,0,1.4-0.3,1.9-1.1c1.8-3.4,3.7-6.7,5.4-10.1c0.5-1,1.1-1.5,2.3-1.5c9.9,0.1,19.9,0.1,29.8,0
			c1.6,0,2.4,0.6,3.1,1.9c1.7,3.3,3.5,6.5,5.3,9.8c0.3,0.5,0.6,1,1.3,0.9c3.4,0,6.8,0,10.5,0C501.7,120.7,501.5,120.2,501.3,119.8z
			 M478.8,100.8c-7.6,0-15.2,0-22.9,0c-0.8,0-1.5,0-0.9-1.1c3.9-7.6,7.8-15.3,11.8-22.9c0.1-0.2,0.2-0.3,0.5-0.7
			c2.5,4.8,4.9,9.5,7.4,14.1c1.6,3.1,3.3,6.2,4.9,9.3C480.1,100.4,480,100.8,478.8,100.8z"/>
		<path class="st3" d="M207.8,121.8c-9.7-17.8-19.5-35.5-29.2-53.3c-0.8-1.5-2.2-2.3-3.8-2.6c-3.3-0.5-5.4,0.5-7.1,3.7
			c-4.1,7.5-8.2,15.1-12.3,22.7c-5.3,9.7-10.5,19.5-15.8,29.2c-0.3,0.5-1.1,1.3,0.4,1.2c2.9-0.1,5.8-0.1,8.7-0.1
			c0.9,0,1.3-0.3,1.7-1c1.8-3.5,3.7-7,5.6-10.5c0.4-0.8,0.9-1.2,1.9-1.2c10.3,0,20.5,0,30.8,0c1,0,1.5,0.4,1.9,1.2
			c1.9,3.5,3.8,7,5.7,10.5c0.3,0.5,0.4,0.9,1.1,0.9c3.5,0,7,0,10.7,0C208,122.2,207.9,122,207.8,121.8z M160.8,101.9
			c4.2-8.2,8.3-16.3,12.6-24.6c4.4,8.3,8.6,16.4,12.9,24.6C177.8,101.9,169.4,101.9,160.8,101.9z"/>
		<path class="st3" d="M449,170.4c-0.4-0.5-0.6-0.8-0.1-1.4c1.6-2.3,2.5-4.9,3-7.5c0.4-2,0.4-1.9-1.5-2c-1,0-1.5,0.1-1.7,1.3
			c-0.3,2.3-1,4.5-2.4,6.7c-2.2-2.6-4.4-5-6.6-7.6c2-1.2,3.9-2.2,5.1-4.1c2.2-3.5,0.5-8.1-3.4-8.9c-2.6-0.6-5.1-0.2-7,2
			c-1.8,2-2.1,4.4-1.3,7c0.4,1.2,1.8,2.3,1.5,3.3c-0.3,1-2,1.5-2.8,2.4c-2.2,2.5-2.8,5.4-1.6,8.5c1.1,3,3.5,4.4,6.7,4.7
			c3.1,0.3,5.9-0.3,8.4-2.3c0.7-0.6,1.2-0.6,1.6,0.2c1.4,2.4,3.6,1.8,6,1.7C451.4,172.9,450.2,171.6,449,170.4z M438.8,149.3
			c2.7-0.4,4.5,2.2,3.5,4.8c-0.7,1.8-2.3,2.7-3.8,3.7c-0.4,0.3-0.6,0-0.8-0.3c-1-1.3-1.7-2.7-1.6-3.8
			C436.1,151,437.2,149.5,438.8,149.3z M443.6,170.4c-1.4,1.1-3,1.8-4.8,1.8c-2.8,0-4.8-1.5-5.5-4.1c-0.6-2.4,0.6-5.3,2.8-6.5
			c0.5-0.3,0.7-0.1,1,0.2c2.2,2.5,4.5,5,6.8,7.5C444.3,169.8,444,170.1,443.6,170.4z"/>
		<path class="st3" d="M558.2,166.3c-0.5-2.1-1.5-3.9-3.7-4.9c0.3-0.2,0.5-0.3,0.7-0.4c3.1-1.6,4.6-4.2,4.3-7.5
			c-0.4-3.3-2.3-5.3-5.8-6.2c-3.4-0.8-6.8-0.5-10.2,0c-0.8,0.1-0.9,0.5-0.9,1.2c0,8.3,0,16.5,0,24.8c0,0.9,0.2,1.3,1.1,1.1
			c0.3,0,0.6,0,0.9,0c1.2,0.2,1.7-0.2,1.6-1.5c-0.1-3.1,0-6.2,0-9.2c0-0.4-0.2-1.1,0.6-1.1c4.3-0.1,6.8,0,8,4.8c0.5,2,1,4,1.5,6
			c0.2,0.8,0.6,1.2,1.5,1.1c0.8-0.1,1.6,0,2.6,0C559.5,171.7,558.9,169,558.2,166.3z M552.1,159.6c-0.2,0.1-0.4,0.1-0.6,0.2
			c-1.7,0.2-3.8,0.9-5-0.1c-1.1-0.9-0.2-3.1-0.3-4.4c0-1.7,0-3.1,0-4.4c0-0.6,0.1-0.9,0.8-1c1.6-0.1,3.2-0.2,4.8,0.1
			c2.6,0.5,4,2.2,4.1,4.6C556.1,157,554.6,158.9,552.1,159.6z"/>
		<path class="st3" d="M734.4,158.8c-2.5-5.1-9.4-6-13.2-1.7c-0.2,0.2-0.2,0.6-0.7,0.4c0-3.2,0-6.4,0-9.6c0-2.1,0-2-2.1-2.1
			c-1.4-0.1-1.6,0.4-1.6,1.6c0,8.4,0,16.8,0,25.2c0,2.4-0.3,1.8,1.9,2c1,0.1,1.3-0.3,1.3-1.2c0-0.6,0.1-1.1,0.1-1.8
			c3.9,5.6,11.8,4,14.2-1.2C736.2,166.5,736.3,162.6,734.4,158.8z M731.4,168.2c-0.9,2.6-3.3,4.1-5.8,3.8c-2.8-0.3-4.7-2.3-5-5.2
			c-0.1-0.7,0-1.4,0-2.1c0,0-0.1,0-0.1,0c0.1-0.9,0.1-1.8,0.2-2.6c0.4-2.6,2.4-4.5,5-4.8c2.4-0.3,4.5,1,5.6,3.4
			C732.3,163.2,732.3,165.8,731.4,168.2z"/>
		<path class="st3" d="M624,161.5c-0.7-3.4-2.6-6.1-6.2-6.9c-3.5-0.8-6.6,0.2-8.7,3.2c-0.4-0.3-0.2-0.6-0.2-0.9
			c-0.2-2.3-0.1-2.3-2.4-2.2c-0.9,0-0.9,0.4-0.9,1.1c0.3,8.1,0.1,16.1,0.1,24.2c0,2.4,0,2.3,2.4,2.4c1,0,1.2-0.4,1.2-1.3
			c0-2.9,0-5.9,0-9c0.3,0.2,0.4,0.3,0.5,0.4c3.7,3.5,9.6,3.1,12.6-1.1C624.4,168.5,624.7,165.1,624,161.5z M619.3,169.7
			c-1.4,2-3.7,2.8-6,2.2c-2.3-0.6-3.9-2.6-4.1-5c0-0.6,0-1.3,0-2.1c-0.2-2.1,0.2-4.2,2-5.9c2.5-2.3,6.2-1.9,8.1,0.9
			C621.1,162.4,621.1,167.1,619.3,169.7z"/>
		<path class="st3" d="M638.7,154.5c-5.9,0-9.8,4.1-9.8,10.2c-0.1,6,3.7,10.2,9.3,10.2c6,0,10-4.1,10-10.4
			C648.2,158.5,644.4,154.5,638.7,154.5z M643.2,169.3c-2.3,4-7.4,3.9-9.6-0.2c-0.8-1.4-1.1-2.9-1-4.4c-0.1-1.9,0.3-3.5,1.2-5
			c2.2-3.5,7.1-3.6,9.3-0.1C645,162.8,645,166.2,643.2,169.3z"/>
		<path class="st3" d="M526.3,162.6c-0.7-3.9-2.7-6.7-6.6-7.8c-6.8-1.8-12.3,2.5-12.5,9.8c-0.2,7.3,5.8,12,12.7,9.9
			C524.5,173,527.2,168,526.3,162.6z M520.3,170.8c-2.1,2-5.2,1.9-7.3-0.1c-2.9-2.9-3-9-0.2-11.9c2.3-2.4,6.1-2.2,8.1,0.4
			c1.2,1.6,1.7,3.5,1.7,5.3C522.7,167,522,169.1,520.3,170.8z"/>
		<path class="st3" d="M111.7,162c-0.7-3.2-2.4-5.7-5.5-6.9c-5.7-2.1-13.5,0.5-13.5,9.7c0,7.3,5.9,11.7,12.6,9.6
			C110.3,172.9,113,167.7,111.7,162z M106.3,170.4c-2.5,2.7-6.3,2.4-8.4-0.5c-2-2.8-2-7.5,0-10.4c2.2-3.1,6.8-3.1,8.9,0.1
			c1,1.5,1.4,3.3,1.4,5.2C108.2,166.8,107.7,168.8,106.3,170.4z"/>
		<path class="st3" d="M387.3,154.7c-4.3,1.1-6.3,4.2-6.9,8.4c-0.6,4.2,0.1,8,4,10.4c3.6,2.3,7.6,1.8,11.5,0.5
			c1.3-0.4,0.2-1.4,0.2-2.1c0-0.8-0.6-0.5-1.1-0.4c-1.7,0.6-3.4,0.8-5.2,0.7c-3.3-0.2-5.5-2.3-6-5.4c-0.2-1,0-1.4,1.1-1.4
			c1.9,0.1,3.8,0,5.7,0c2,0,3.9,0,5.9,0c0.4,0,0.9,0.2,1.1-0.6C398.9,158.6,393.4,153.1,387.3,154.7z M393.2,162.8
			c-1.5,0-2.9,0-4.4,0s-2.9,0-4.4,0c-0.4,0-0.7,0.1-0.7-0.6c0.1-2.4,2.5-4.8,4.9-5.1c3-0.3,5.3,1.8,5.4,4.8
			C394.1,162.5,393.9,162.8,393.2,162.8z"/>
		<path class="st3" d="M763.4,154.8c-4.1-1.4-8.6,0.4-10.7,4.2c-1,1.9-1.4,3.9-1.4,5.9c0,3.5,1,6.7,4.3,8.6
			c3.7,2.1,7.5,1.6,11.3,0.3c1.2-0.4,0.1-1.4,0.1-2.1c0-0.8-0.6-0.5-1.1-0.4c-0.9,0.2-1.9,0.5-2.9,0.6c-4.7,0.6-7.8-1.5-8.4-5.7
			c-0.1-0.9,0.1-1.1,1-1.1c2,0,3.9,0,5.9,0c2,0,4,0,6,0c0.7,0,1-0.2,1.1-0.9C769.4,160.5,766.9,156,763.4,154.8z M764.5,162.7
			c-3.2,0-6.3,0-9.5,0c0.3-3.9,3.1-6.3,6.6-5.6c2.1,0.4,3.9,2.9,3.7,5C765.2,162.8,764.9,162.7,764.5,162.7z"/>
		<path class="st3" d="M159.3,154.7c-8,1.9-8.6,13.4-4.5,17.5c2.8,2.8,10.2,3.8,13.3,1.7c0.9-0.6,0-1.4-0.1-2.1
			c-0.1-0.8-0.6-0.5-1.1-0.3c-1.7,0.6-3.4,0.8-5.2,0.7c-3.4-0.2-5.6-2.5-6-5.7c-0.1-0.8,0.1-1,0.9-1c2,0,3.9,0,5.9,0c2,0,4,0,6,0
			c0.5,0,0.9,0,1.1-0.7C171,158.6,165.4,153.2,159.3,154.7z M165.4,162.7c-1.5,0-2.9,0-4.4,0c-1.5,0-2.9,0-4.4,0
			c-0.5,0-0.8-0.1-0.7-0.7c0.3-3.3,3.7-5.7,6.9-4.8c1.9,0.6,3.4,2.7,3.4,4.8C166.2,162.7,165.9,162.7,165.4,162.7z"/>
		<path class="st3" d="M569.1,165.3c2,0,3.9,0,5.9,0c1.2,0,2.3,0,3.5,0c4,0,4.1-0.1,3.3-4.1c-0.6-3.2-2.2-5.8-5.7-6.6
			c-3.5-0.8-6.8-0.1-9.1,2.9c-2.8,3.6-3.1,7.8-1.5,11.9c1.9,5,10.3,7.4,14.9,4.3c0.9-0.6,0-1.5-0.1-2.2c-0.1-0.8-0.6-0.3-1-0.2
			c-1.6,0.5-3.2,0.8-4.9,0.7c-3.6-0.2-5.8-2.2-6.3-5.7C568,165.5,568.3,165.3,569.1,165.3z M568.3,162c0.3-3,3.1-5.3,6-4.9
			c2.4,0.3,4.3,2.5,4.3,5c0,0.7-0.4,0.7-0.8,0.7c-1.5,0-2.9,0-4.4,0c-1.5,0-2.9,0-4.4,0C568.4,162.8,568.2,162.6,568.3,162z"/>
		<path class="st3" d="M306.9,172.3c0-0.6-0.1-1.2-0.1-1.8c0-3.1,0-6.2-0.1-9.2c-0.1-2.2-0.8-4.2-2.7-5.6c-2.4-1.7-8.3-1.6-10.7,0.2
			c-1,0.8,0,1.5,0.1,2.2c0.2,0.9,0.7,0.2,1.1,0.1c1.5-0.7,3-1,4.7-0.9c2.2,0.1,3.5,1.3,3.9,3.5c0.2,1,0,1.4-1.2,1.5
			c-3,0-5.9,0.5-8.3,2.4c-1.9,1.5-2.7,4.1-2,6.5c0.6,2.2,2.4,3.7,4.9,4c2.7,0.3,5-0.5,7-2.8c0.1,0.8,0.2,1.3,0.3,1.8
			c0,0.3,0.1,0.6,0.5,0.5c0.9,0,1.9,0.2,2.6-0.2C307.5,174,306.9,173,306.9,172.3z M303.3,166.6c0,3.4-1.5,5.3-4.5,5.6
			c-1.7,0.1-3-0.6-3.5-2c-0.6-1.5-0.1-3.3,1.2-4.2c1.9-1.4,4.1-1.5,6.3-1.5c0.5,0,0.5,0.3,0.5,0.7
			C303.3,165.7,303.3,166.1,303.3,166.6z"/>
		<path class="st3" d="M709.7,162.8c0-0.8,0-1.7-0.1-2.5c-0.3-2.1-1.2-4-3.2-4.9c-3.4-1.6-6.8-1.1-10,0.5c-1.1,0.6,0,1.3,0,2
			c0.1,0.8,0.6,0.5,1.1,0.3c1.6-0.8,3.3-1.1,5.1-1c2,0.2,3.3,1.5,3.5,3.5c0.1,1-0.1,1.4-1.2,1.4c-2.4,0-4.8,0.4-6.9,1.5
			c-3,1.6-4.3,4.6-3.3,7.6c0.9,2.7,3.5,4.1,6.8,3.7c2-0.2,3.5-1.2,4.9-2.6c0.5,2.4,0.5,2.4,3.6,2.1
			C709.6,170.5,709.7,166.6,709.7,162.8z M701.7,172.2c-1.6,0.1-2.8-0.5-3.4-1.7c-0.6-1.4-0.4-3,0.7-4.1c1.9-1.8,4.3-1.8,6.7-1.9
			c0.5,0,0.5,0.3,0.5,0.7c0,0.5,0,1,0,1.5C706.2,170.1,704.7,171.9,701.7,172.2z"/>
		<path class="st3" d="M863.2,88.8c-0.2,4.3-1.6,7.3-3.3,10.2c-0.4,0.6-0.8,0.7-1.5,0.4c-3-1.3-5.7-3.1-7.8-5.8
			c-1.8-2.4-1.7-5-0.4-7.6c1.1-2.3,3-3.8,5.7-3.7C859.6,82.4,863.5,85.8,863.2,88.8z"/>
		<path class="st3" d="M867.6,85.3c-3.7,0-6.4-2-7.5-5c-1-2.6-0.3-5,1.8-6.9c2.5-2.1,5.8-2.6,8.3-1.2c3.1,1.8,5.2,4.7,6.8,7.8
			c0.3,0.6,0.1,0.9-0.3,1.2C873.7,83.5,870.5,85.1,867.6,85.3z"/>
		<path class="st3" d="M836.5,64.2c3.3,0,6,2,7.2,4.9c1,2.5,0.4,5.1-1.7,6.9c-2.3,2.1-5.6,2.7-8.2,1.3c-3.3-1.8-5.3-4.7-7-7.9
			c-0.3-0.5-0.2-0.9,0.3-1.3C830,66,833.3,64.4,836.5,64.2z"/>
		<path class="st3" d="M870.1,59.1c-0.1,2.9-0.3,5.5-1.6,7.8c-1.3,2.5-4.3,3.9-7.3,3.6c-2.7-0.3-4.7-1.9-5.4-4.5
			c-1.1-3.8,0.6-7.5,4.2-9c2.7-1.1,5.6-1.4,8.5-1.4c0.9,0,1.4,0.4,1.4,1.3C870.1,57.7,870.1,58.6,870.1,59.1z"/>
		<path class="st3" d="M833.6,90c0-2.1,0.3-4.2,1-6.2c1.4-4,6.1-6,10-4.3c4.2,1.9,4.9,8.9,1.1,11.8c-3.3,2.4-7.2,2.6-11.1,2.5
			c-0.7,0-0.8-0.6-0.8-1C833.7,91.8,833.7,90.9,833.6,90z"/>
		<path class="st3" d="M840.6,59.2c0.2-2.8,1.4-5.8,3.2-8.7c0.4-0.7,1-0.7,1.6-0.4c3,1.3,5.7,3.1,7.7,5.7c1.9,2.5,1.7,6-0.3,8.7
			c-1.7,2.3-4.3,3.1-7,2.2C842.6,65.7,840.6,63.1,840.6,59.2z"/>
	</g>
</g>
<g id="franckprovost">
	<g>
		<path class="st8" d="M620.9,147.3c0-4.8,0-9.7,0-14.5c0-0.4-0.4-1.2,0.5-1.1c0.8,0,1.7-0.5,2,0.9c1,4.9,2.7,9.6,5.6,13.7
			c4.4,6.2,10.1,10.5,17.7,11.9c4,0.7,8,0.5,11.7-1.3c8.5-4.1,9.8-14,2.7-20.2c-3.5-3.1-7.6-5.2-11.8-7.2
			c-5.3-2.7-10.7-5.3-15.7-8.6c-4.8-3.2-8.7-7.2-10.9-12.6c-4-9.7-0.8-20.7,7.5-27.1c6-4.7,12.9-5.9,20.3-5.2
			c4.1,0.4,7.8,1.8,11.4,3.6c1.6,0.8,3.2,1.5,5,1.9c1.8,0.4,3.2-0.3,3.9-2c0.4-1,0.7-2,0.9-3c0.3-1.3,1.3-0.6,1.9-0.7
			c0.9-0.1,0.5,0.6,0.6,1c0.2,7.8,0.4,15.7,0.6,23.5c0,0.9,0,1.8,0.1,2.7c0.1,0.6-0.2,0.7-0.7,0.7c0,0-0.1,0-0.1,0
			c-1.9,0.1-1.9,0.1-2.3-1.8c-2.3-9.5-7.6-16.5-16.8-20.2c-4.8-1.9-9.8-2-14.5,0.4c-4.7,2.3-7,7-5.9,11.8c0.5,2.4,2.1,4.1,3.8,5.7
			c2.8,2.7,6.3,4.4,9.7,6.2c5.3,2.8,10.8,5.1,15.9,8.3c3.9,2.4,7.7,4.9,10.6,8.5c7.7,9.5,7,23.1-1.6,31.8
			c-6.5,6.6-14.6,9.1-23.7,8.9c-5.3-0.1-10.2-1.8-15.1-3.8c-1.7-0.7-3.4-1.4-5.3-1.2c-2.6,0.3-4.3,1.9-5.5,4.1
			c-0.4,0.7-1.6,1.2-2.4,0.8c-0.5-0.2-0.3-0.7-0.3-1C620.9,157.1,620.9,152.2,620.9,147.3z"/>
		<path class="st8" d="M721.8,77.6c12.2,0,24.3,0,36.5,0c1.1,0,1.3,0.3,1.3,1.4c0,6.7,0,13.4,0,20c0,0.4,0.4,1.2-0.6,1.2
			c-0.8,0-1.7,0.3-2-1c-0.6-2.8-1.5-5.5-2.8-8.1c-2.8-5.3-7-8.3-13.1-8.6c-2.6-0.1-5.2,0-7.8-0.1c-1,0-1.3,0.2-1.3,1.3
			c0,18.2,0,36.5,0,54.7c0,3.8,0,7.7,0,11.5c0,1.2,0.1,2.3,0.3,3.5c0.4,2.8,2.9,4.9,6.1,5.3c1.5,0.2,2.9,0.3,4.4,0.2
			c0.9-0.1,1,0.3,0.9,1c-0.1,0.6,0.2,1.2-0.9,1.2c-14,0-28.1,0-42.1,0c-1,0-0.9-0.5-0.9-1.1c0-0.6-0.2-1.2,0.8-1.1
			c1.4,0.1,2.7,0,4.1-0.1c4.6-0.6,6.6-2.8,6.8-7.4c0-1.1,0.1-2.2,0.1-3.4c0-21.4,0-42.8,0-64.2c0-1.2-0.3-1.4-1.5-1.4
			c-3.4,0.1-6.9-0.1-10.3,0.5c-5.7,1-9.1,4.7-11.4,9.7c-1,2.1-1.7,4.3-2,6.6c-0.2,1.3-1.1,0.9-1.8,1c-1,0.1-0.7-0.7-0.7-1.2
			c0-6.8,0-13.5,0-20.3c0-0.9,0.2-1.2,1.2-1.2C697.4,77.6,709.6,77.6,721.8,77.6z"/>
		<path class="st8" d="M495.7,135.9c2.3-5.2,4.6-10.4,6.9-15.6c4-9.1,8.2-18.1,12-27.3c0.8-1.9,1.4-3.8,1.7-5.8
			c0.3-2.7-0.8-4.9-3.4-6.1c-2.1-1-4.4-1.2-6.6-1.2c-1.2,0-0.8-0.8-0.9-1.4c-0.1-0.8,0.3-0.9,1-0.9c8.5,0,17,0,25.6,0
			c0.4,0,1-0.3,0.9,0.5c-0.1,0.6,0.6,1.6-0.6,1.9c-4.1,0.9-7,3.5-9.1,7.1c-2.6,4.3-4.6,8.9-6.7,13.5c-9.3,20.6-18.5,41.2-27.7,61.8
			c-0.4,0.8-0.9,0.7-1.6,0.8c-0.9,0.1-1.2-0.3-1.5-1c-6.1-14.4-12.3-28.8-18.5-43.1c-4.4-10.2-8.6-20.5-13.3-30.6
			c-0.6-1.2-1.3-2.4-1.8-3.6c-1.3-3.1-3.9-4.4-7-4.7c-1.4-0.1-1-1-1.1-1.8c-0.1-1,0.7-0.7,1.1-0.7c12.6,0,25.2,0,37.8,0
			c1,0,1.2,0.3,1.2,1.2c0,1-0.3,1.1-1.2,1.1c-1.9-0.1-3.8,0-5.7,0.5c-3,0.8-3.9,2.4-3.1,5.3c1,3.4,2.5,6.6,3.9,9.9
			c5.6,13.1,11.2,26.1,16.8,39.2C495.2,135.1,495.3,135.6,495.7,135.9z"/>
		<path class="st8" d="M575.9,46.7c4.9-3.9,9.5-7.7,14.1-11.5c0.5-0.4,0.8-0.9,1.2-1.4c0.9-1.4,0.4-2.7-1.3-3
			c-0.5-0.1-1-0.1-1.6-0.1c-0.4,0-0.7-0.2-0.7-0.6c0-0.5,0.3-0.5,0.6-0.5c4.2,0,8.5,0,12.7,0c0.3,0,0.6,0,0.6,0.4
			c0,0.3,0,0.7-0.4,0.7c-2.6,0-4.3,1.8-6.1,3.3c-3.6,2.8-7.2,5.8-10.8,8.6c-0.6,0.5-0.7,0.8-0.2,1.5c4.2,5.2,8.3,10.4,12.5,15.6
			c0.7,0.9,1.5,1.7,2.3,2.4c1,1,2.2,1.7,3.6,1.9c0.3,0,0.7-0.1,0.7,0.5c0,0.7-0.5,0.5-0.9,0.5c-4.6,0-9.1,0-13.7,0c-1,0-2.1,0-3.1,0
			c-0.3,0-0.8,0.2-0.8-0.4c-0.1-0.6,0.4-0.6,0.7-0.7c0.3-0.1,0.7-0.1,1-0.2c0.9-0.3,1.2-0.9,0.8-1.8c-0.5-1.2-1.3-2.3-2.1-3.3
			c-2.5-3.2-5-6.3-7.5-9.5c-0.2-0.3-0.4-0.9-0.9-0.6c-0.4,0.3-1.1,0.5-1.1,1.2c0.1,3.9-0.2,7.8,0.1,11.6c0.1,1.6,0.9,2.3,2.5,2.5
			c0.4,0.1,0.7,0.1,1.1,0.1c0.4,0,0.7,0,0.7,0.6c0,0.5-0.3,0.4-0.7,0.4c-5.6,0-11.1,0-16.7,0c-0.3,0-0.6,0-0.7-0.5
			c0-0.6,0.3-0.5,0.7-0.5c3.8-0.3,4.3-0.8,4.3-4.6c0-8.1,0-16.2,0-24.2c0-0.2,0-0.4,0-0.6c-0.1-3-0.9-3.9-3.9-4c-0.1,0-0.2,0-0.2,0
			c-0.4,0-0.9,0.1-0.8-0.5c0-0.7,0.5-0.5,0.9-0.5c5.4,0,10.7,0,16.1,0c0,0,0.1,0,0.1,0c0.3,0,0.6-0.1,0.7,0.4c0,0.5-0.2,0.6-0.6,0.7
			c-0.3,0-0.6,0-0.8,0.1c-1.5,0.2-2.2,0.9-2.5,2.4c-0.1,0.8-0.2,1.6-0.2,2.4C575.9,39.2,575.9,42.8,575.9,46.7z"/>
		<path class="st8" d="M492.6,36.7c0,7.9,0,15.6,0,23.3c0,2.5,1.7,4,4.3,4.2c0.4,0,1.1-0.4,1.1,0.5c0,0.9-0.8,0.5-1.2,0.5
			c-3.6,0-7.1,0-10.7,0c-0.3,0-0.9,0.2-0.9-0.4c-0.1-0.7,0.5-0.5,0.9-0.6c3.3-0.4,4.3-1.6,4.3-4.9c0-8,0-15.9,0-23.9
			c0-2.1-1.9-4.2-4-4.5c-0.2,0-0.3,0-0.5,0c-0.4,0-0.7-0.1-0.7-0.6c0-0.6,0.4-0.5,0.7-0.5c1.9,0,3.8,0,5.6,0c0.6,0,1.2,0,1.8,0
			c1.4,0,3.1-0.4,4.3,0.2c1.2,0.6,2,2.2,3,3.4c4.6,5.7,9.1,11.4,13.7,17.1c0.2,0.2,0.4,0.5,0.6,0.7c0.3-0.4,0.2-0.7,0.2-1.1
			c0-4.6,0-9.3,0-13.9c0-0.6,0-1.1-0.1-1.7c-0.2-2.2-1.4-3.4-3.6-3.6c-0.2,0-0.4,0-0.6-0.1c-0.3-0.1-0.9,0.1-0.8-0.6
			c0-0.7,0.5-0.5,0.9-0.5c2.8,0,5.5,0,8.3,0c0.7,0,1.4,0,2,0c0.4,0,0.6,0.1,0.6,0.5c0,0.4-0.1,0.6-0.5,0.6c0,0-0.1,0-0.1,0
			c-2.5,0.3-3.8,0.8-3.9,4.6c-0.1,4.1,0,8.2,0,12.4c0,5.7,0,11.4,0,17c0,0.3,0.3,0.8-0.3,1c-0.5,0.1-0.9-0.1-1.2-0.6
			c-7.6-9.4-15.2-18.7-22.8-28.1C493,37,492.9,36.9,492.6,36.7z"/>
		<path class="st8" d="M391.9,29.6c4.6,0,9.3,0,13.9,0c0.9,0,1.1,0.3,1,1.1c0,2.8,0,5.5,0,8.3c0,0.4,0.3,0.9-0.5,1
			c-0.8,0-0.7-0.4-0.7-0.9c-0.6-4.2-3.3-6.7-7.5-7c-2.2-0.2-4.5-0.2-6.7-0.2c-0.7,0-0.9,0.1-0.9,0.9c0,4.2,0,8.5,0,12.7
			c0,0.7,0.2,0.9,0.9,0.9c4.5,0.1,6.8-1.9,7.7-6.6c0.1-0.4-0.2-1,0.6-0.9c0.8,0.1,0.4,0.7,0.4,1c0,5.3,0,10.6,0,15.8
			c0,0.3,0.3,0.9-0.4,0.9c-0.7,0.1-0.6-0.4-0.6-0.9c-0.2-0.9-0.4-1.9-0.7-2.8c-1-3.5-4.5-4.7-7.3-4.6c-0.5,0-0.6,0.3-0.6,0.7
			c0.1,4.2-0.1,8.5,0.2,12.7c0.1,1.2,1,2,2.3,2.3c0.7,0.1,1.3,0.1,2,0.2c0.3,0,0.5,0,0.5,0.4c0,0.4-0.1,0.6-0.5,0.6
			c-0.2,0-0.3,0-0.5,0c-5.5,0-11,0-16.4,0c-0.2,0-0.4,0-0.6,0c-0.4,0-0.5-0.2-0.5-0.5c0-0.3,0.1-0.5,0.5-0.5c0.6,0,1.3,0,1.9-0.1
			c1.7-0.4,2.5-1.1,2.5-2.8c0.1-3.1,0-6.2,0.1-9.4c0-5.6,0-11.3,0-16.9c0-3.3-0.8-4.1-4-4.2c-0.4,0-1,0.2-0.9-0.6
			c0.1-0.7,0.6-0.4,0.9-0.4C382.5,29.6,387.2,29.6,391.9,29.6z"/>
		<path class="st8" d="M557.9,56.9c0.3,1.9,0.2,3.3-1.4,4.7c-3.4,2.8-7.1,4.2-11.5,4.3c-4.8,0.1-9.4-0.8-13.3-3.8
			c-4-3-6-7.2-6.6-12.1c-1.1-9.4,5.5-18.7,15.3-20.6c4-0.8,7.9-0.3,11.7,1.2c0.7,0.3,1.5,0.6,2.2,0.8c1.6,0.5,2.5-0.1,3-1.6
			c0.1-0.4,0.1-0.8,0.8-0.8c0.8,0.1,0.5,0.6,0.5,1c0,3.4,0,6.7,0,10.1c0,0.4,0.4,1.1-0.4,1.3c-0.9,0.2-0.8-0.5-1-1
			c-0.9-3.1-2.6-5.6-5.4-7.3c-5.6-3.3-12.8-1.1-15.5,4.8c-2,4.4-2.2,9.1-1.6,13.8c0.3,2.3,0.9,4.6,2,6.7c1.7,3.1,4.3,4.8,7.8,5.1
			c5.2,0.5,9.2-1.8,12.5-5.5C557.4,57.5,557.6,57.3,557.9,56.9z"/>
		<path class="st9" d="M753.8,187.1c-3.4,0-5.4-1.3-6.1-3.6c-0.3-0.9-0.1-1.7,0.8-2.1c1-0.4,1.6,0.3,1.8,1.1
			c0.6,2.2,2.7,2.8,4.6,2.2c0.9-0.3,1.6-0.9,1.7-2c0-1-0.7-1.6-1.5-1.9c-1.3-0.4-2.7-0.7-4-1.2c-2.2-0.8-3.3-2.2-3.2-4.1
			c0.2-2,1.5-3.3,3.8-3.8c1.6-0.4,3.2-0.3,4.7,0.3c1.1,0.4,2,1.2,2.5,2.3c0.4,1,0.1,1.9-0.7,2.2c-1,0.5-1.6-0.2-1.9-0.9
			c-0.7-1.8-2.4-2.1-4-1.7c-0.8,0.2-1.4,0.6-1.5,1.5c-0.1,0.9,0.5,1.4,1.3,1.6c1.3,0.4,2.7,0.7,4,1.2c2.6,0.8,3.8,2.4,3.7,4.5
			c-0.2,2.4-2,4.1-4.6,4.4C754.6,187.1,754.1,187.1,753.8,187.1z"/>
		<path class="st9" d="M738.2,179.3c0-2,0-3.9,0-5.9c0-1.2,0.5-1.9,1.5-1.9c1,0,1.6,0.7,1.6,1.9c0,3.9,0,7.9,0,11.8
			c0,1.2-0.6,1.8-1.6,1.8c-1,0-1.5-0.6-1.5-1.9C738.2,183.2,738.2,181.2,738.2,179.3z"/>
		<path class="st8" d="M360.4,158.8c-2.7-0.3-4.8-1.6-6.5-3.8c-4-5-7.5-10.3-11.3-15.5c-4.2-5.9-8.4-11.7-12.7-17.7
			c1.4-0.5,2.7-0.8,4-1.3c7.8-2.9,13-8,14.3-16.5c1.7-10.8-4.8-21.1-15.4-24.2c-5.1-1.5-10.4-2-15.7-2.1c-15-0.1-29.9-0.1-44.9-0.1
			c-0.8,0-1,0.3-0.9,1c0.1,0.7-0.2,1.3,1,1.3c2.2,0,4.4,0,6.5,0.8c2.2,0.9,3.6,2.3,4,4.8c0.2,1.8,0.4,3.6,0.4,5.4
			c0,18.6,0,37.1,0,55.7c0,1.8-0.1,3.6-0.2,5.4c-0.2,3.9-2,5.9-6,6.6c-1.5,0.3-3,0.4-4.5,0.4c-1,0-1.1,0.4-1.1,1.2
			c-0.1,1,0.4,1.1,1.2,1.1c8.8,0,17.6,0,26.4,0c4.8,0,9.6,0,14.4,0c1,0,0.9-0.5,0.8-1.1c0-0.5,0.3-1.2-0.8-1.2
			c-1.3,0-2.6-0.1-3.8-0.2c-4.4-0.4-6.7-2.6-6.9-6.8c-0.5-9.4-0.1-18.8-0.3-28.2c0-0.7,0.3-0.8,0.9-0.8c1,0,2,0.1,3,0
			c1.3-0.2,2,0.4,2.7,1.4c8.5,12,17.1,24,25.6,36c0.5,0.6,0.9,0.8,1.7,0.8c8,0,16,0,24,0c0.4,0,1.2,0.4,1.2-0.6
			C361.3,159.8,361.8,158.9,360.4,158.8z M327.6,106.4c-1.5,6.4-5.6,10.3-12.1,11.3c-4.1,0.7-8.3,0.7-12.4,0.7
			c-0.8,0-0.8-0.4-0.8-0.9c0-5.7,0-11.4,0-17.2c0-5.6,0-11.3,0-16.9c0-1,0.3-1.2,1.3-1.2c4.1,0.1,8.1-0.1,12.2,0.7
			c6.9,1.4,11.1,5.8,12.1,12.7C328.3,99.2,328.4,102.8,327.6,106.4z"/>
		<path class="st8" d="M447.8,111.6c-1.9-12.4-8.2-22-18.6-28.8c-7.6-5-16.2-6.5-25.7-6.2c-1.1-0.1-2.6,0-4.1,0
			c-1.6,0-3.1,0.2-4.6,0.5c-14.3,2.4-24.4,10.4-30.7,23.2c-4.9,10-5.3,20.6-2.6,31.2c3.5,13.5,11.7,23.4,24.9,28.6
			c8.8,3.5,18,3.8,27.3,2.3c13.9-2.3,23.8-10.2,30.1-22.7C448.3,130.8,449.3,121.3,447.8,111.6z M423.6,140.9
			c-1.2,4.2-2.9,8.1-5.7,11.5c-4,4.9-9.4,6.5-15.5,6c-7.6-0.6-12.2-5.1-15.3-11.7c-2.4-5.1-3.5-10.5-4.1-16.1
			c-0.6-5.8-0.7-11.6-0.4-17.4c0.3-6.1,1.1-12.1,3.3-17.9c1.6-4.2,3.8-8.1,7.4-10.9c8-6.4,20.1-4.6,25.9,3.9c3,4.4,4.6,9.2,5.5,14.4
			c0.9,5.7,1.2,11.4,1.2,18.4C425.9,126.9,425.6,134,423.6,140.9z"/>
		<path class="st8" d="M614.1,110.8c-2-12-8.3-21.3-18.5-28c-7.7-5-16.2-6.5-25.7-6.2c-1.1-0.1-2.6,0-4.1,0c-1.6,0-3.1,0.2-4.6,0.5
			c-14.1,2.3-24.3,10.2-30.5,22.8c-5.6,11.3-5.7,23.2-1.7,35c4,11.6,11.6,20.1,23.1,24.8c9.1,3.7,18.5,4.2,28.1,2.6
			c14.2-2.4,24.1-10.5,30.3-23.3C614.9,130.1,615.8,120.6,614.1,110.8z M592.4,121c-0.1,7.7-0.6,15.3-3.3,22.6
			c-1.3,3.5-3,6.7-5.5,9.5c-4,4.4-9.1,5.8-14.9,5.3c-8-0.6-12.6-5.6-15.6-12.5c-2.3-5.2-3.3-10.7-3.9-16.3c-0.3-3.3-0.5-6.6-0.5-9.9
			c0.1-7.6,0.5-15.2,2.9-22.6c1.4-4.5,3.6-8.7,7.2-12c8-7.3,20.9-5.7,26.9,3.3c3,4.6,4.7,9.6,5.5,15
			C592.2,109.2,592.5,115.1,592.4,121z"/>
		<path class="st8" d="M270.4,98.9c-0.4-8.2-4.7-13.8-11.8-17.4c-5.7-2.9-11.9-3.7-18.1-3.8c-13.1-0.2-26.2-0.1-39.3-0.1
			c-0.9,0-0.9,0.4-0.9,1c0,0.7-0.1,1.2,1,1.2c1.9,0,3.9,0.1,5.8,0.6c2.7,0.7,4.2,2.6,4.6,5.3c0.3,2.3,0.3,4.6,0.3,6.9
			c0.1,8.9,0,17.8,0,26.6c0,0.8,0,1.7,0,2.5c-0.1,9.7,0.2,19.4-0.2,29.1c-0.2,4.8-2,7-6.8,7.7c-1.3,0.2-2.6,0.3-3.9,0.2
			c-1.1,0-0.9,0.6-0.9,1.2s-0.1,1.1,0.9,1.1c2.4-0.1,4.7,0,7.1,0c11.3,0,22.6,0,33.8,0c0.9,0,1.1-0.3,1-1.1c-0.1-0.7,0.1-1.3-1-1.2
			c-1.7,0.1-3.3-0.1-5-0.4c-3-0.5-4.8-2.3-5.4-5.3c-0.2-1-0.3-2-0.3-3c0-8.8,0-17.7-0.1-26.5c0-0.7,0.3-0.7,0.9-0.8
			c4.5,0,9-0.1,13.5-0.5c4.6-0.4,9.1-1.4,13.1-3.6C266.7,114.5,270.8,108,270.4,98.9z M248.8,108.9c-1.8,6.1-6.7,9.4-13.8,9.6
			c-1.2,0-2.7,0.4-3.5-0.2c-0.7-0.6-0.2-2.2-0.2-3.3c0-4.9,0-9.8,0-14.8c0-5.6,0-11.2,0-16.8c0-1,0.3-1.2,1.2-1.2
			c2.6,0,5.3,0.1,7.8,0.9c4.6,1.4,7.5,4.6,8.7,9.2C250.4,97.8,250.4,103.4,248.8,108.9z"/>
		<path class="st8" d="M483.7,64c-1.3-0.2-2.1-0.9-2.7-2c-0.5-0.8-1-1.7-1.3-2.5c-4.4-9.8-8.7-19.7-13.1-29.6
			c-0.2-0.4-0.1-1.1-0.8-1c-0.5,0-0.5,0.6-0.7,1c-4.2,9.2-8.3,18.5-12.5,27.7c-0.7,1.6-1.5,3.3-2.6,4.7c-1.9,2.2-4.3,2.2-6.1,0
			c-1.1-1.3-2.1-2.7-3.1-4.1c-2.3-3.2-4.6-6.4-6.9-9.7c0.7-0.2,1.2-0.4,1.8-0.6c6.7-2.4,8.2-10.7,2.8-15.4c-2.1-1.9-4.7-2.4-7.4-2.6
			c-7.1-0.5-14.1-0.2-21.2-0.3c-0.1,0-0.2,0-0.4,0c-0.3,0-0.5,0.1-0.5,0.4c0,0.3-0.1,0.6,0.4,0.6c0.3,0,0.6,0.1,0.9,0.1
			c2.8,0.2,3.6,1,3.6,3.8c0,6.2,0,12.5,0,18.7c0,2.6,0,5.1-0.1,7.7c0,1.9-0.9,2.8-2.8,3c-0.3,0-0.6,0.1-0.9,0.1
			c-0.4,0.1-1.1-0.4-1.1,0.5c0,0.9,0.8,0.5,1.2,0.5c3.7,0,7.4,0,11.2,0c1.8,0,3.5,0,5.3,0c0.4,0,0.7,0,0.7-0.6
			c0-0.5-0.3-0.4-0.6-0.5c-0.6,0-1.3-0.1-1.9-0.2c-1.4-0.2-2.2-1.1-2.3-2.5c-0.3-3.9-0.1-7.8-0.1-11.7c0-0.3-0.1-0.7,0.3-0.7
			c0.9,0,1.8-0.3,2.5,0.8c3.3,4.8,6.8,9.6,10.1,14.4c0.5,0.7,1,0.9,1.9,0.9c3.8,0,7.6,0,11.4,0c3,0,6.1,0,9.1,0
			c0.3,0,0.8,0.2,0.8-0.5c0-0.7-0.5-0.5-0.8-0.6c-0.3-0.1-0.7,0-1.1-0.1c-2.3-0.3-3.2-1.6-2.6-3.9c0.4-1.5,1.1-2.8,1.7-4.2
			c0.3-0.6,0.6-0.9,1.3-0.9c3.5,0,7,0,10.6,0c0.7,0,1.1,0.3,1.3,0.9c0.5,1.4,1.2,2.7,1.7,4.1c1.3,3.3,0.9,4-2.7,4.2
			c-0.3,0-0.8-0.1-0.8,0.4c0,0.6,0.4,0.6,0.8,0.6c5.2,0,10.3,0,15.5,0c0.3,0,0.8,0.2,0.9-0.4C484.5,64.1,484.1,64,483.7,64z
			 M432.8,42.1c-0.7,2.9-2.6,4.5-5.6,4.8c-1.3,0.1-2.5,0.1-3.8,0.2c-0.7,0.1-1-0.1-1-0.9c0-4.5,0-9,0-13.5c0-0.7,0.1-1,0.9-0.9
			c0.5,0.1,1,0,1.6,0c0,0,0,0,0,0c0.7,0,1.4,0,2.1,0.1c4.9,0.7,6.1,3.6,6.1,8C433.1,40.6,433,41.3,432.8,42.1z M457.2,52.9
			c1.8-3.9,3.5-7.8,5.3-11.9c1.8,4.1,3.5,7.9,5.2,11.9C464.2,52.9,460.7,52.9,457.2,52.9z"/>
		<path class="st8" d="M731.7,184.9c-0.8-1.8-1.9-3.5-3.6-4.8c2.2-0.9,3-1.5,3.4-2.8c0.9-2.9-0.9-5.4-4.1-5.6
			c-2.1-0.1-4.2-0.1-6.4,0c-1.2,0-1.7,0.6-1.7,1.8c0,3.9,0,7.8,0,11.8c0,1.2,0.6,1.8,1.6,1.8c1.1-0.1,1.5-0.8,1.5-1.8
			c0-1.4,0-2.8,0-4.2c0-0.3-0.1-0.7,0.5-0.7c1.1,0,2.3,0.1,3,1.1c0.5,0.7,1,1.4,1.5,2.2c0.6,0.9,1.1,1.9,1.7,2.7
			c0.6,0.8,1.4,1,2.2,0.5C732.1,186.4,732,185.7,731.7,184.9z M726.9,178c-1.4,0.3-2.8,0.1-4.2,0.2c-0.4,0-0.4-0.2-0.4-0.5
			c0-0.4,0-0.8,0-1.2c0-2.4,0-2.4,2.4-2.3c0.7,0,1.4-0.1,2,0c1,0.2,1.8,0.8,1.8,1.9C728.6,177.1,728,177.8,726.9,178z"/>
		<path class="st10" d="M713.3,184.6c-1.5-3.8-3.1-7.7-4.7-11.5c-0.4-1-1-1.6-2.1-1.6c-1.2,0-1.8,0.7-2.2,1.7
			c-1.5,3.8-3.1,7.7-4.6,11.5c-0.5,1.2-0.2,2,0.6,2.3c0.9,0.4,1.8,0,2-1.2c0.5-2.3,1.8-2.6,3.9-2.6c2.3,0,3.9,0.3,4.3,2.8
			c0.1,0.6,0.6,1.1,1.2,1.1C713.3,187.1,713.9,186,713.3,184.6z M704.3,180.9c0.7-2,1.4-3.9,2.2-6.1c0.8,2.2,1.5,4.1,2.3,6.1
			C707.2,180.9,705.8,180.9,704.3,180.9z"/>
		<path class="st10" d="M696.4,175.9c-0.1-2.2-1.4-3.6-3.4-4c-2.2-0.4-4.4-0.2-6.6-0.2c-1,0-1.5,0.7-1.5,1.7c0,2,0,3.9,0,5.9
			c0,2,0,3.9,0,5.9c0,1.3,0.5,1.9,1.5,1.9c0.9,0,1.5-0.7,1.6-1.9c0-1,0.1-2,0-3c-0.1-1,0.2-1.3,1.2-1.3c1.5,0.1,2.9,0.1,4.4-0.4
			C695.5,179.9,696.5,178.2,696.4,175.9z M693.1,177.4c-0.4,0.8-1.2,1.1-1.9,1.2c-0.9,0.1-1.7,0-2.6,0.1c-0.4,0-0.6-0.1-0.5-0.6
			c0-0.6,0-1.2,0-1.9c0.1-0.6-0.3-1.8,0.2-2c1-0.4,2.3-0.3,3.4,0C693,174.5,693.7,176,693.1,177.4z"/>
	</g>
</g>
</svg>
