<svg id="jean_louis_david" data-name="jean louis david" xmlns="http://www.w3.org/2000/svg" viewBox="0 0 961.45 214.49"><defs><style>.cls-1{fill:#fefefe;}</style></defs><title>jean_louis_david</title><rect width="961.45" height="214.49"/><path class="cls-1" d="M641.73,155.61c-5.54,0-11.08.11-16.61-.08-1.29,0-3.64-1.06-3.64-1.63,0-2.47,2.24-1.72,3.76-1.86.88-.08,1.77-.05,2.66,0,3,0,4.54-1.62,4.66-4.48.14-3.43.09-6.86.09-10.3q0-33.89,0-67.78c0-5.73-1-6.73-6.7-7a1.74,1.74,0,0,1-.66,0c-1.25-.63-2.48-1.28-3.72-1.93,1.26-.56,2.52-1.58,3.79-1.6,9.63-.13,19.27.09,28.9-.1,13.31-.27,23.27,5.39,30.08,16.63,12,19.74,10.9,50.41-3.42,67.72-6.61,8-14.88,12.75-25.58,12.5-4.54-.1-9.08,0-13.62,0Zm4.51-48.21h0q0,9,0,17.95,0,10.8,0,21.61c0,2.22.26,4.54,2.94,4.87,8.37,1,15.53,1.13,21.17-7.93,2.52-4,4.68-8.82,5.21-13.46a232.89,232.89,0,0,0,1.83-33.09A76.14,76.14,0,0,0,673,75c-3.54-10.25-8.65-13-19.51-12.78-6.05.12-7.27,1.4-7.27,7.6Q646.25,88.61,646.24,107.39Z" transform="translate(-0.61 -1.5)"/><path class="cls-1" d="M872.53,148.07a13.34,13.34,0,0,0-2.21,1.91c-6.56,10-20.71,8.08-27.07-1-4-5.73-5.54-12.28-6.26-19-1.14-10.63-.14-21.05,4-31,2.54-6.16,6.48-11,13.42-12.77,6.67-1.66,11.35-.06,15.4,5.45.55.75,1.2,1.44,2.32,2.77a20.32,20.32,0,0,0,.63-3.15q0-11.63,0-23.27c0-3.91-1.11-5-5.08-5.52a5.39,5.39,0,0,1-2-.27c-.58-.34-1.32-1.08-1.28-1.6a2.05,2.05,0,0,1,1.5-1.35c5.53-.1,11.07-.13,16.6,0,.66,0,1.54,1.14,1.84,1.93a8.67,8.67,0,0,1,.14,3q0,40.22,0,80.44c0,5.93.64,6.66,6.48,8,.77.18,1.39,1.05,2.07,1.6-.77.46-1.53,1.29-2.31,1.31-5,.1-10,0-15,0-2.16,0-2.91-1.12-2.83-3.17A38.86,38.86,0,0,0,872.53,148.07ZM849.4,121.34c.26,5.35.15,9.82.77,14.18a57.36,57.36,0,0,0,3.16,13.42c1.76,4.36,5.55,5.14,9.67,2.76,4.81-2.78,7.89-7.06,8.28-12.55.67-9.37,1.06-18.79,1-28.18,0-6-1.21-12-5-16.95-4.48-5.9-10.7-5.45-14,1.16a27.61,27.61,0,0,0-2.57,8.85C850,110.06,849.77,116.16,849.4,121.34Z" transform="translate(-0.61 -1.5)"/><path class="cls-1" d="M230.93,89.18a22.39,22.39,0,0,1,3-.68c3.86-.36,7.73-.56,11.58-1,2.46-.26,3.58.63,3.39,3.11a3.74,3.74,0,0,0,0,1.32c.27.86.66,1.68,1,2.52a8.39,8.39,0,0,0,2-1.49c3.53-4.89,8.09-7.76,14.28-7.71,8.28.07,14.25,5.34,14.55,13.68.39,10.84.27,21.7.35,32.55,0,4.87,0,9.75,0,14.62,0,4,1.16,5.17,5,6.24a11.88,11.88,0,0,1,3,1.94c-1.11.44-2.22,1.24-3.34,1.25q-10.3.17-20.6,0c-1.24,0-2.45-.85-3.68-1.31,1-.69,1.92-1.73,3-2,2.84-.68,3.7-2.6,3.74-5.13.07-4.65,0-9.3,0-14,0-11.63,0-23.26,0-34.89,0-3-.4-5.88-3.49-7.28s-5.88-.16-8.24,1.9a18,18,0,0,0-6.37,13.76c-.15,13.29-.05,26.58-.07,39.87,0,3.17,1.16,5.28,4.58,5.88.87.15,1.59,1.17,2.38,1.79-1,.48-2,1.37-2.94,1.39q-10.46.17-20.93,0c-1,0-1.94-.9-2.91-1.39.8-.61,1.52-1.61,2.4-1.78,3.74-.69,4.68-3,4.67-6.48q-.11-24.25,0-48.51c0-3.26-1-5.31-4.31-6a10.44,10.44,0,0,1-2.21-1.07Z" transform="translate(-0.61 -1.5)"/><path class="cls-1" d="M481.39,146.24c-.78,1-1.57,2-2.33,3-3.8,5.08-8.43,8.34-15.22,7.57-7.43-.84-12.3-5.21-13.26-12.57a90.18,90.18,0,0,1-.77-10.92c-.09-11.86,0-23.71,0-35.57,0-4.11-.76-4.9-4.78-5.85a12.62,12.62,0,0,1-3-1.62,12.3,12.3,0,0,1,3.28-1.33c4.18-.4,8.39-.55,12.59-.87,4.65-.35,4.73-.32,4.73,4.25q0,25.1,0,50.2c0,.11,0,.22,0,.33,0,5.61,1,7.79,4.18,8.77s6.94-.79,9.63-4.49a25.2,25.2,0,0,0,5.27-15.75c-.21-10.74-.05-21.5-.07-32.25,0-5.52-.09-5.57-5.18-7.56-.59-.23-1-1-1.43-1.53.6-.38,1.18-1,1.81-1.09,5-.43,9.94-.87,14.92-1,.86,0,2.24,1.48,2.5,2.5.42,1.67.11,3.52.11,5.29,0,16.62,0,33.24,0,49.87,0,3.42.49,6.18,4.48,7,.58.12,1,1.2,1.45,1.83-.61.38-1.22,1.08-1.84,1.09-4.32.07-8.65.16-13-.16-.92-.07-2.21-1.62-2.49-2.7a33.62,33.62,0,0,1-.49-6.13Z" transform="translate(-0.61 -1.5)"/><path class="cls-1" d="M354.05,155.59q-14.13,0-28.25,0a9.23,9.23,0,0,1-3-.24,2.19,2.19,0,0,1-1.27-1.61,2.13,2.13,0,0,1,1.36-1.53,33,33,0,0,1,4.3-.24c3.72-.22,5.44-1.85,5.62-5.58.14-3,.06-6,.07-9q0-34.07,0-68.15c0-5.75-1-6.65-6.7-7.07-1.68-.12-4.12.79-4.43-2,0-.29,2.88-1.28,4.43-1.31,9.08-.13,18.17-.07,27.26-.06a7.55,7.55,0,0,1,2.31.11,6.66,6.66,0,0,1,1.71,1.27c-.57.56-1.06,1.48-1.71,1.61-1.73.34-3.53.28-5.28.49-3.58.44-4.88,1.83-4.88,5.41q0,39.23,0,78.45c0,4.25,1.36,5.57,5.51,5.82,1.22.07,2.43.15,3.64.28,10.49,1.08,18.32-3.23,22.81-12.51,2.76-5.7,4.13-12.08,6.2-18.12a16.19,16.19,0,0,1,1.66-2.84c.48,1,1.36,2,1.37,3,.09,10.08,0,20.17.06,30.25,0,2.91-1.39,3.56-3.91,3.55-9.64-.06-19.28,0-28.92,0Z" transform="translate(-0.61 -1.5)"/><path class="cls-1" d="M740.79,123.11q0,10.63,0,21.26c0,1.1-.23,2.39.25,3.27.67,1.22,1.78,2.72,3,3,.84.18,2.73-1.29,3-2.34.67-2.4.52-5,1-7.51a9.94,9.94,0,0,1,1.54-2.8c.47,1,1.31,2,1.32,3a43,43,0,0,1-.56,7.27c-.74,4.62-3.92,8-7.93,8.81a10.53,10.53,0,0,1-11.25-5.27c-2.3-3.86-2.31-3.87-5.11-.24-4.17,5.4-9.92,6.38-16.13,5.42-6.46-1-10.33-5.34-12.45-11.19-3-8.41-.81-18,5.36-22.37,2.86-2,6.29-3.2,9.48-4.7q6.46-3,13-6a4.79,4.79,0,0,0,3-5c-.11-3.32,0-6.65-.05-10-.09-4.75-1.81-7.34-6.52-7.61a25.35,25.35,0,0,0-10.77,2c-2.92,1.21-2.56,3.64.44,4.93,2.85,1.22,5.07,2.83,5.11,6.22a6.71,6.71,0,0,1-4.06,6.35c-3.12,1.57-6.09.82-8.73-1.15-5.54-4.13-4.84-14,1.67-18a25.94,25.94,0,0,1,11.12-3.83,48.8,48.8,0,0,1,15,1.37c6.28,1.56,9.18,6,9.3,12.54.13,7.53,0,15.06,0,22.59ZM729,128.5l-.82-.15c0-3.21,0-6.41,0-9.62,0-2.35-1.06-3-3.15-1.87-3,1.65-6.33,2.92-8.9,5.09-2.31,2-4.93,4.71-5.38,7.44-.85,5.27-.52,10.78-.16,16.16a7,7,0,0,0,5,6.44c3.17.93,5.63-.75,7.59-3a11.89,11.89,0,0,0,2.91-4.74C727.28,139.07,728,133.76,729,128.5Z" transform="translate(-0.61 -1.5)"/><path class="cls-1" d="M217,123.21q0,10.47,0,20.95c0,.66,0,1.33,0,2,.17,2.07.51,4.26,3.08,4.39s3.33-2,3.63-4,.11-4.21.39-6.28a9.06,9.06,0,0,1,1.36-2.66c.58.89,1.65,1.78,1.65,2.67a48.53,48.53,0,0,1-.73,7.93,10.15,10.15,0,0,1-8.05,8.68A10.63,10.63,0,0,1,207.56,152c-.31-.46-.58-.94-.86-1.42-1.61-2.77-2.22-2.85-4.08-.12-3.91,5.75-9.48,7.39-16,6.44-9.37-1.38-15.39-10.73-14.26-21.56.81-7.72,5.21-12.37,12.08-15.28,5.61-2.38,11.09-5,16.65-7.52a5.11,5.11,0,0,0,3.32-5.51c-.16-3.21,0-6.43-.06-9.64-.12-4.58-2.46-7.59-7-7.66a25.86,25.86,0,0,0-10.17,2.06c-2.88,1.21-2.59,3.84.34,5.06,3.21,1.33,5.31,3.26,5,6.94a6.67,6.67,0,0,1-4.68,5.9,8.91,8.91,0,0,1-9.12-2.44c-4.47-5-2.88-14,3.55-17.45a30.29,30.29,0,0,1,11.27-3.52,38.06,38.06,0,0,1,13.1,1.15c7.5,2,10.21,6.06,10.35,13.87.13,7.31,0,14.63,0,21.94Zm-11.74,4-.86-.16c0-2.77,0-5.54,0-8.31,0-2.43-.83-3.4-3.21-2.08-3.1,1.72-6.28,3.3-9.29,5.17a10.94,10.94,0,0,0-5.5,9.66c0,3.88-.14,7.76,0,11.63a13.42,13.42,0,0,0,1.3,5.09c2.3,4.73,7.28,5.52,10.85,1.67a13.54,13.54,0,0,0,3.46-5.55C203.42,138.69,204.24,132.92,205.27,127.21Z" transform="translate(-0.61 -1.5)"/><path class="cls-1" d="M102.29,103.85c0-11.52,0-23,0-34.57,0-6-1-6.83-7-7.1-1.52-.07-3-1.06-4.49-1.63,1.47-.57,2.94-1.61,4.43-1.63,9.53-.16,19.06-.1,28.59-.11.44,0,1-.15,1.31,0a26.17,26.17,0,0,1,2.36,1.71c-.73.54-1.39,1.38-2.19,1.55a21.67,21.67,0,0,1-4,.11c-4.74.1-6.39,1.7-6.41,6.48,0,15.62,0,31.25,0,46.87,0,5.32,0,10.64,0,16,.08,16.22-10.76,26.44-27.05,25.31-11-.76-22.72-11.43-20.63-23.92,1.13-6.75,5.91-10.74,12.5-10.16a7.57,7.57,0,0,1,7,7.54c.15,4-1.62,5.91-6.17,6.7l-.66.1c-2.5.37-5.42.22-6.45,3.15-1.1,3.14.77,5.53,2.79,7.69a17.21,17.21,0,0,0,19.29,3.8,10,10,0,0,0,6.17-7.72,41.27,41.27,0,0,0,.56-6.27c.05-11.3,0-22.6,0-33.91Z" transform="translate(-0.61 -1.5)"/><path class="cls-1" d="M392.27,121.4c.28-9.59,2.34-18.79,8.31-26.69,8.54-11.31,24.36-11.41,32.62.12,8.59,12,10.09,25.57,6.45,39.6a42,42,0,0,1-6.08,13.48c-9,12.74-25.94,12-34.39-1.12C394.25,139.11,392.37,130.56,392.27,121.4Zm34.54.48c0-7.2.07-14.41,0-21.61-.08-5.86-4.09-10.12-9.54-10.38-5.67-.27-10.39,3.62-10.51,9.65q-.43,21.93,0,43.88c.12,6.58,4.76,10.55,10.67,10.22,5.65-.32,9.42-4.73,9.45-11.15C426.84,135.62,426.82,128.75,426.81,121.88Z" transform="translate(-0.61 -1.5)"/><path class="cls-1" d="M537.94,141.73c0-3.55-.1-7.1.06-10.63,0-1,.85-2,1.3-3a11.69,11.69,0,0,1,2.2,2.42c2.51,5.15,4.4,10.68,7.45,15.48,3.57,5.64,8.89,9,16.08,7.3,4-1,7.16-3.15,8.08-7.45,1-4.6.5-9.1-3.54-12-4.47-3.24-9.32-6-14-8.84-3.5-2.13-7.21-3.94-10.56-6.27-6.9-4.79-8.83-13.76-5.17-22.68a16.69,16.69,0,0,1,18.73-9.92c3.87.86,7.59,2.84,11.08,4.85s4.14,2,6.07-1.14a10,10,0,0,1,2.25-2A9.56,9.56,0,0,1,579,90.72c.1,6.31.12,12.63,0,18.95,0,1-1,1.93-1.48,2.9-.7-.84-1.87-1.59-2-2.53-1.25-7-4.07-13.08-9.69-17.66-5-4.05-11-4.52-15.63-1.16-5.29,3.88-6.1,10.8-1.19,15.24,3.05,2.76,6.93,4.66,10.58,6.7,4.44,2.48,9.18,4.47,13.52,7.1,9.14,5.54,12.06,15,8,24.67a20.4,20.4,0,0,1-23.91,11.51c-3.54-1-6.85-3-10.09-4.86-3.41-2-4.25-1.81-6,1.76-.34.69-1.14,1.15-1.72,1.71-.45-.78-1.26-1.54-1.29-2.34-.14-3.65-.06-7.31-.06-11Z" transform="translate(-0.61 -1.5)"/><path class="cls-1" d="M152.45,121c-4.21,0-8.42,0-12.63,0-2.17,0-3.35.84-3.28,3.13.19,6.09.24,12.18.56,18.26.28,5.4,3.35,8.88,8.4,10.34,4.86,1.4,9.48.27,12.64-3.69,2.29-2.87,3.69-6.47,5.42-9.77.4-.77.34-1.81.83-2.5s1.3-.89,2-1.31c.31.64.9,1.27.89,1.91a19.51,19.51,0,0,1-27,17.69c-7.8-3.1-12.62-9-15.05-16.69-4.34-13.82-3-27.44,2.8-40.54,3.18-7.23,8.95-11.61,17.15-11.56S159.85,90,163.75,97.54c3.37,6.49,3.93,13.55,4.19,20.67.08,2.18-1.21,2.85-3.19,2.83-4.1,0-8.2,0-12.3,0Zm-15.66-14.27h-.25c0,2.44,0,4.88,0,7.31,0,1.83.65,3,2.7,3,4.21,0,8.43.13,12.63-.14,1-.07,2.72-1.53,2.74-2.39a152.77,152.77,0,0,0-.33-16.93c-.46-5.14-3.77-7.73-8.73-7.7a8.46,8.46,0,0,0-8.69,7.93A81.37,81.37,0,0,0,136.79,106.73Z" transform="translate(-0.61 -1.5)"/><path class="cls-1" d="M758,87.67c3.66,0,7.31-.06,11,.05.73,0,1.44.69,2.16,1.06-.54.59-1,1.42-1.64,1.74-4.68,2.22-5.15,2.92-3.61,7.92,3.45,11.22,7,22.4,10.62,33.57a8.3,8.3,0,0,0,1.65,2.16,8.41,8.41,0,0,0,1.63-2.22q4.86-16.06,9.56-32.17c1.27-4.34-.36-7.17-4.64-8.81a12.19,12.19,0,0,1-2.8-2.17,13.53,13.53,0,0,1,3.47-1c4.76-.12,9.53-.11,14.29,0a9.83,9.83,0,0,1,2.88,1,8.77,8.77,0,0,1-1.82,2.05A14.35,14.35,0,0,0,794,99.6q-7.89,26.07-15.85,52.13c-.65,2.13-.79,5.12-3.82,5.12s-3.39-2.81-4.1-5q-8.79-26.66-17.5-53.34C751.62,95,749.86,92.13,746,91c-.73-.22-1.19-1.32-1.77-2,.81-.41,1.61-1.16,2.43-1.19,3.76-.13,7.53-.06,11.3-.06Z" transform="translate(-0.61 -1.5)"/><path class="cls-1" d="M525.88,119.28c0,8.75,0,17.5,0,26.25,0,5.38.19,5.52,5.21,7.17.67.22,1.14,1.06,1.71,1.62-.69.44-1.37,1.25-2.06,1.25q-11.29.14-22.59,0c-.75,0-1.49-.93-2.23-1.43a7.77,7.77,0,0,1,2-1.47c5-1.64,5.38-2.15,5.38-7.2,0-15.28-.06-30.57,0-45.85,0-4.12-.4-7.61-5.48-8.28-.52-.07-.92-1-1.37-1.55.6-.4,1.17-1.11,1.79-1.15q7.62-.49,15.25-.76c2.48-.09,2.38,1.8,2.38,3.5Q525.89,105.32,525.88,119.28Z" transform="translate(-0.61 -1.5)"/><path class="cls-1" d="M826.18,119.09q0,13.61,0,27.23c0,4.58.49,5.09,5,6.32.78.21,1.37,1.09,2,1.65-.78.45-1.55,1.29-2.33,1.3q-11.12.15-22.24,0c-.77,0-1.53-.89-2.3-1.36.71-.56,1.35-1.4,2.16-1.64,4.54-1.39,5-1.93,5-6.73q0-23.74,0-47.48c0-4.39-.68-5.21-4.88-6.65-.81-.27-1.42-1.11-2.12-1.68.85-.49,1.68-1.35,2.56-1.42,4.52-.36,9.06-.42,13.58-.77,2.61-.2,3.59.74,3.56,3.36-.09,9.3,0,18.6,0,27.89Z" transform="translate(-0.61 -1.5)"/><path class="cls-1" d="M527.42,67.86a8.6,8.6,0,0,1-8.59,8.66,8.83,8.83,0,0,1-8.77-8.89,8.74,8.74,0,0,1,8.83-8.48A8.59,8.59,0,0,1,527.42,67.86Z" transform="translate(-0.61 -1.5)"/><path class="cls-1" d="M827.25,67.61a8.67,8.67,0,1,1-8.86-8.45A8.72,8.72,0,0,1,827.25,67.61Z" transform="translate(-0.61 -1.5)"/></svg>